<svg xmlns="http://www.w3.org/2000/svg" xmlns:xlink="http://www.w3.org/1999/xlink" width="500" zoomAndPan="magnify" viewBox="0 0 375 374.999991" height="500" preserveAspectRatio="xMidYMid meet" version="1.0"><defs><g/><clipPath id="193ca13732"><path d="M 63.636719 63.636719 L 311.363281 63.636719 L 311.363281 311.363281 L 63.636719 311.363281 Z M 63.636719 63.636719 " clip-rule="nonzero"/></clipPath><clipPath id="4b90c7160d"><path d="M 187.5 63.636719 C 119.089844 63.636719 63.636719 119.089844 63.636719 187.5 C 63.636719 255.910156 119.089844 311.363281 187.5 311.363281 C 255.910156 311.363281 311.363281 255.910156 311.363281 187.5 C 311.363281 119.089844 255.910156 63.636719 187.5 63.636719 " clip-rule="nonzero"/></clipPath><clipPath id="50c74e3f4c"><path d="M 78.78125 78.78125 L 296.28125 78.78125 L 296.28125 296.28125 L 78.78125 296.28125 Z M 78.78125 78.78125 " clip-rule="nonzero"/></clipPath><clipPath id="d68ba698ef"><path d="M 124.800781 121 L 250.050781 121 L 250.050781 255.585938 L 124.800781 255.585938 Z M 124.800781 121 " clip-rule="nonzero"/></clipPath></defs><g clip-path="url(#193ca13732)"><g clip-path="url(#4b90c7160d)"><path fill="#afd4db" d="M 63.636719 63.636719 L 311.363281 63.636719 L 311.363281 311.363281 L 63.636719 311.363281 Z M 63.636719 63.636719 " fill-opacity="1" fill-rule="nonzero"/></g></g><g clip-path="url(#50c74e3f4c)"><path fill="#f8f8f8" d="M 113.554688 264.410156 C 113.964844 264.804688 113.976562 265.457031 113.585938 265.871094 C 113.382812 266.082031 113.109375 266.183594 112.84375 266.183594 C 112.585938 266.183594 112.328125 266.085938 112.125 265.894531 C 111.714844 265.5 111.703125 264.851562 112.101562 264.4375 C 112.492188 264.03125 113.144531 264.015625 113.554688 264.410156 Z M 122.179688 102.929688 C 122.394531 102.929688 122.617188 102.863281 122.800781 102.71875 C 123.253906 102.371094 123.339844 101.722656 122.992188 101.273438 C 122.648438 100.820312 122.003906 100.730469 121.550781 101.078125 C 121.09375 101.421875 121.007812 102.074219 121.351562 102.519531 C 121.558594 102.789062 121.863281 102.929688 122.179688 102.929688 Z M 109.878906 113.910156 C 110.152344 113.910156 110.417969 113.800781 110.621094 113.589844 C 111.015625 113.183594 111.007812 112.527344 110.59375 112.128906 C 110.183594 111.738281 109.53125 111.75 109.136719 112.160156 C 108.742188 112.570312 108.753906 113.222656 109.167969 113.621094 C 109.363281 113.8125 109.621094 113.910156 109.878906 113.910156 Z M 106.433594 258.441406 C 106.007812 258.824219 105.96875 259.472656 106.351562 259.894531 C 106.351562 259.902344 106.351562 259.902344 106.351562 259.902344 C 106.550781 260.128906 106.835938 260.242188 107.121094 260.242188 C 107.363281 260.242188 107.609375 260.160156 107.804688 259.984375 C 108.226562 259.601562 108.269531 258.953125 107.886719 258.523438 C 107.511719 258.101562 106.855469 258.058594 106.433594 258.441406 Z M 115.820312 108.183594 C 116.0625 108.183594 116.3125 108.09375 116.507812 107.917969 C 116.929688 107.542969 116.964844 106.886719 116.589844 106.464844 C 116.207031 106.042969 115.558594 106 115.132812 106.382812 C 114.707031 106.757812 114.671875 107.414062 115.046875 107.835938 C 115.253906 108.066406 115.539062 108.183594 115.820312 108.183594 Z M 110.667969 261.519531 C 110.269531 261.113281 109.621094 261.097656 109.207031 261.492188 C 108.796875 261.890625 108.785156 262.539062 109.183594 262.953125 C 109.382812 263.164062 109.652344 263.265625 109.925781 263.265625 C 110.183594 263.265625 110.441406 263.175781 110.636719 262.976562 C 111.046875 262.585938 111.058594 261.933594 110.667969 261.519531 Z M 118.203125 269.988281 C 117.84375 270.429688 117.90625 271.078125 118.34375 271.441406 C 118.535156 271.601562 118.765625 271.675781 118.996094 271.675781 C 119.296875 271.675781 119.589844 271.550781 119.796875 271.304688 C 120.15625 270.867188 120.09375 270.210938 119.65625 269.851562 C 119.21875 269.488281 118.570312 269.550781 118.203125 269.988281 Z M 94.417969 241.734375 C 93.925781 242.027344 93.769531 242.65625 94.054688 243.144531 C 94.253906 243.472656 94.59375 243.652344 94.941406 243.652344 C 95.125 243.652344 95.304688 243.605469 95.46875 243.507812 C 95.957031 243.214844 96.117188 242.578125 95.828125 242.09375 C 95.535156 241.605469 94.902344 241.445312 94.417969 241.734375 Z M 115.101562 267.273438 C 114.71875 267.695312 114.753906 268.351562 115.183594 268.726562 C 115.183594 268.730469 115.183594 268.730469 115.183594 268.730469 C 115.378906 268.902344 115.621094 268.988281 115.867188 268.988281 C 116.152344 268.988281 116.433594 268.875 116.636719 268.644531 C 117.019531 268.222656 116.976562 267.566406 116.554688 267.191406 C 116.132812 266.808594 115.476562 266.851562 115.101562 267.273438 Z M 118.945312 105.496094 C 119.179688 105.496094 119.410156 105.417969 119.605469 105.257812 C 120.042969 104.898438 120.105469 104.242188 119.738281 103.804688 C 119.378906 103.367188 118.730469 103.304688 118.292969 103.671875 C 117.851562 104.03125 117.792969 104.679688 118.152344 105.121094 C 118.359375 105.367188 118.652344 105.496094 118.945312 105.496094 Z M 112.796875 110.984375 C 113.054688 110.984375 113.3125 110.894531 113.511719 110.699219 C 113.917969 110.304688 113.929688 109.652344 113.539062 109.242188 C 113.140625 108.832031 112.492188 108.820312 112.078125 109.210938 C 111.671875 109.609375 111.65625 110.257812 112.054688 110.671875 C 112.253906 110.882812 112.523438 110.984375 112.796875 110.984375 Z M 98.835938 248.6875 C 98.371094 249.011719 98.257812 249.65625 98.585938 250.125 C 98.789062 250.410156 99.109375 250.558594 99.429688 250.558594 C 99.632812 250.558594 99.839844 250.503906 100.019531 250.375 C 100.488281 250.042969 100.597656 249.398438 100.273438 248.933594 C 99.945312 248.472656 99.300781 248.359375 98.835938 248.6875 Z M 96.558594 245.253906 C 96.082031 245.5625 95.941406 246.203125 96.253906 246.675781 C 96.453125 246.980469 96.785156 247.148438 97.117188 247.148438 C 97.316406 247.148438 97.503906 247.09375 97.679688 246.980469 C 98.160156 246.671875 98.292969 246.03125 97.984375 245.554688 C 97.675781 245.078125 97.035156 244.945312 96.558594 245.253906 Z M 98.789062 126.445312 C 98.96875 126.570312 99.175781 126.632812 99.382812 126.632812 C 99.707031 126.632812 100.027344 126.484375 100.226562 126.195312 C 100.550781 125.730469 100.445312 125.085938 99.972656 124.761719 C 99.511719 124.429688 98.867188 124.542969 98.542969 125.007812 C 98.210938 125.472656 98.324219 126.117188 98.789062 126.445312 Z M 96.511719 129.890625 C 96.683594 130.003906 96.875 130.054688 97.066406 130.054688 C 97.40625 130.054688 97.738281 129.890625 97.9375 129.585938 C 98.246094 129.105469 98.109375 128.46875 97.632812 128.160156 C 97.15625 127.847656 96.515625 127.984375 96.207031 128.460938 C 95.898438 128.941406 96.03125 129.582031 96.511719 129.890625 Z M 107.078125 116.933594 C 107.363281 116.933594 107.640625 116.816406 107.847656 116.589844 C 108.222656 116.167969 108.1875 115.511719 107.765625 115.136719 C 107.335938 114.753906 106.6875 114.789062 106.304688 115.21875 C 105.929688 115.640625 105.964844 116.296875 106.386719 116.671875 C 106.589844 116.847656 106.832031 116.933594 107.078125 116.933594 Z M 101.195312 123.089844 C 101.386719 123.234375 101.605469 123.300781 101.824219 123.300781 C 102.132812 123.300781 102.4375 123.164062 102.644531 122.894531 C 102.992188 122.445312 102.902344 121.796875 102.449219 121.453125 C 101.996094 121.105469 101.351562 121.195312 101.003906 121.648438 C 100.660156 122.101562 100.746094 122.746094 101.195312 123.089844 Z M 103.773438 255.285156 C 103.335938 255.652344 103.273438 256.300781 103.640625 256.742188 C 103.839844 256.988281 104.136719 257.113281 104.433594 257.113281 C 104.664062 257.113281 104.898438 257.035156 105.089844 256.878906 C 105.527344 256.515625 105.589844 255.863281 105.226562 255.425781 C 104.867188 254.988281 104.21875 254.925781 103.773438 255.285156 Z M 104.386719 120.070312 C 104.6875 120.070312 104.980469 119.941406 105.1875 119.695312 C 105.546875 119.253906 105.484375 118.605469 105.046875 118.246094 C 104.605469 117.878906 103.953125 117.941406 103.59375 118.382812 C 103.234375 118.820312 103.292969 119.472656 103.734375 119.832031 C 103.921875 119.992188 104.15625 120.070312 104.386719 120.070312 Z M 101.242188 252.035156 C 100.789062 252.378906 100.703125 253.027344 101.046875 253.484375 C 101.050781 253.484375 101.050781 253.484375 101.050781 253.484375 C 101.253906 253.746094 101.558594 253.882812 101.867188 253.882812 C 102.089844 253.882812 102.308594 253.816406 102.496094 253.671875 C 102.945312 253.328125 103.03125 252.679688 102.6875 252.230469 C 102.339844 251.777344 101.695312 251.6875 101.242188 252.035156 Z M 128.910156 98.175781 C 129.101562 98.175781 129.296875 98.125 129.472656 98.011719 C 129.945312 97.699219 130.082031 97.0625 129.773438 96.582031 C 129.460938 96.109375 128.824219 95.972656 128.347656 96.285156 C 127.871094 96.59375 127.734375 97.230469 128.042969 97.707031 C 128.242188 98.011719 128.570312 98.175781 128.910156 98.175781 Z M 147.675781 286.53125 C 147.148438 286.316406 146.546875 286.574219 146.335938 287.105469 C 146.125 287.628906 146.378906 288.234375 146.90625 288.445312 C 147.03125 288.496094 147.164062 288.515625 147.289062 288.515625 C 147.703125 288.515625 148.089844 288.273438 148.25 287.875 C 148.460938 287.34375 148.207031 286.742188 147.675781 286.53125 Z M 147.140625 88.675781 C 147.269531 88.675781 147.398438 88.648438 147.527344 88.597656 C 148.050781 88.386719 148.304688 87.78125 148.09375 87.257812 C 147.878906 86.726562 147.277344 86.472656 146.753906 86.683594 C 146.222656 86.902344 145.96875 87.5 146.179688 88.03125 C 146.347656 88.433594 146.734375 88.675781 147.140625 88.675781 Z M 143.90625 284.929688 C 143.390625 284.691406 142.777344 284.929688 142.546875 285.445312 C 142.316406 285.964844 142.546875 286.574219 143.066406 286.8125 C 143.203125 286.867188 143.34375 286.898438 143.484375 286.898438 C 143.882812 286.898438 144.257812 286.671875 144.429688 286.289062 C 144.660156 285.769531 144.429688 285.160156 143.90625 284.929688 Z M 143.355469 90.292969 C 143.496094 90.292969 143.640625 90.261719 143.777344 90.199219 C 144.292969 89.964844 144.527344 89.355469 144.292969 88.835938 C 144.058594 88.320312 143.449219 88.085938 142.929688 88.320312 C 142.414062 88.550781 142.179688 89.164062 142.414062 89.683594 C 142.585938 90.066406 142.960938 90.292969 143.355469 90.292969 Z M 154.898438 85.875 C 155 85.875 155.105469 85.859375 155.214844 85.828125 C 155.753906 85.652344 156.054688 85.074219 155.882812 84.53125 C 155.707031 83.988281 155.128906 83.6875 154.585938 83.859375 C 154.042969 84.035156 153.742188 84.613281 153.914062 85.160156 C 154.054688 85.597656 154.460938 85.875 154.898438 85.875 Z M 140.207031 283.183594 C 139.695312 282.929688 139.078125 283.136719 138.824219 283.644531 C 138.570312 284.15625 138.785156 284.773438 139.289062 285.027344 C 139.4375 285.097656 139.59375 285.136719 139.746094 285.136719 C 140.128906 285.136719 140.488281 284.925781 140.671875 284.5625 C 140.929688 284.054688 140.714844 283.433594 140.207031 283.183594 Z M 150.992188 87.199219 C 151.109375 87.199219 151.226562 87.179688 151.339844 87.136719 C 151.878906 86.945312 152.15625 86.355469 151.960938 85.816406 C 151.769531 85.28125 151.175781 85.003906 150.640625 85.199219 C 150.105469 85.390625 149.832031 85.984375 150.023438 86.519531 C 150.171875 86.9375 150.566406 87.199219 150.992188 87.199219 Z M 155.386719 289.296875 C 154.847656 289.125 154.269531 289.429688 154.09375 289.972656 C 153.925781 290.511719 154.226562 291.089844 154.769531 291.265625 C 154.871094 291.296875 154.976562 291.3125 155.078125 291.3125 C 155.515625 291.3125 155.925781 291.035156 156.0625 290.589844 C 156.234375 290.046875 155.933594 289.472656 155.386719 289.296875 Z M 151.507812 287.992188 C 150.96875 287.796875 150.378906 288.074219 150.1875 288.609375 C 149.996094 289.148438 150.273438 289.738281 150.808594 289.929688 C 150.925781 289.972656 151.042969 289.992188 151.15625 289.992188 C 151.578125 289.992188 151.980469 289.730469 152.128906 289.304688 C 152.320312 288.769531 152.042969 288.183594 151.507812 287.992188 Z M 135.984375 93.957031 C 136.148438 93.957031 136.320312 93.917969 136.472656 93.828125 C 136.980469 93.554688 137.160156 92.933594 136.886719 92.433594 C 136.613281 91.933594 135.988281 91.746094 135.488281 92.019531 C 134.988281 92.292969 134.804688 92.917969 135.078125 93.417969 C 135.261719 93.761719 135.617188 93.957031 135.984375 93.957031 Z M 129.546875 277.105469 C 129.066406 276.792969 128.429688 276.929688 128.117188 277.40625 C 127.808594 277.886719 127.945312 278.527344 128.421875 278.835938 C 128.597656 278.949219 128.792969 279 128.984375 279 C 129.316406 279 129.652344 278.835938 129.847656 278.53125 C 130.160156 278.050781 130.023438 277.414062 129.546875 277.105469 Z M 139.632812 92.050781 C 139.789062 92.050781 139.941406 92.019531 140.09375 91.941406 C 140.601562 91.691406 140.808594 91.070312 140.558594 90.5625 C 140.304688 90.050781 139.683594 89.84375 139.175781 90.097656 C 138.664062 90.351562 138.457031 90.96875 138.710938 91.480469 C 138.890625 91.84375 139.257812 92.050781 139.632812 92.050781 Z M 158.851562 84.703125 C 158.945312 84.703125 159.039062 84.6875 159.125 84.664062 C 159.675781 84.515625 160.003906 83.945312 159.847656 83.402344 C 159.699219 82.847656 159.132812 82.523438 158.578125 82.679688 C 158.03125 82.828125 157.707031 83.394531 157.863281 83.945312 C 157.988281 84.402344 158.402344 84.703125 158.851562 84.703125 Z M 125.5 100.488281 C 125.703125 100.488281 125.910156 100.429688 126.089844 100.300781 C 126.554688 99.96875 126.667969 99.332031 126.339844 98.867188 C 126.015625 98.398438 125.371094 98.289062 124.898438 98.613281 C 124.4375 98.945312 124.328125 99.589844 124.652344 100.050781 C 124.855469 100.335938 125.171875 100.488281 125.5 100.488281 Z M 126.15625 274.816406 C 125.6875 274.484375 125.050781 274.597656 124.71875 275.0625 C 124.390625 275.527344 124.503906 276.171875 124.96875 276.5 C 125.148438 276.625 125.359375 276.6875 125.558594 276.6875 C 125.886719 276.6875 126.203125 276.535156 126.40625 276.25 C 126.734375 275.785156 126.621094 275.140625 126.15625 274.816406 Z M 132.40625 96 C 132.585938 96 132.765625 95.953125 132.9375 95.851562 C 133.421875 95.5625 133.582031 94.925781 133.292969 94.4375 C 133 93.949219 132.363281 93.789062 131.878906 94.082031 C 131.390625 94.375 131.230469 95.003906 131.519531 95.496094 C 131.714844 95.820312 132.054688 96 132.40625 96 Z M 122.859375 272.398438 C 122.40625 272.046875 121.761719 272.132812 121.414062 272.585938 C 121.070312 273.042969 121.152344 273.6875 121.605469 274.035156 C 121.796875 274.175781 122.011719 274.246094 122.234375 274.246094 C 122.542969 274.246094 122.847656 274.101562 123.054688 273.839844 C 123.398438 273.386719 123.3125 272.742188 122.859375 272.398438 Z M 136.578125 281.289062 C 136.078125 281.015625 135.449219 281.203125 135.175781 281.703125 C 134.90625 282.203125 135.085938 282.832031 135.585938 283.097656 C 135.585938 283.105469 135.585938 283.105469 135.585938 283.105469 C 135.746094 283.1875 135.917969 283.226562 136.082031 283.226562 C 136.449219 283.226562 136.796875 283.03125 136.988281 282.691406 C 137.261719 282.191406 137.078125 281.5625 136.578125 281.289062 Z M 133.019531 279.265625 C 132.53125 278.976562 131.894531 279.136719 131.605469 279.625 C 131.3125 280.113281 131.472656 280.75 131.964844 281.039062 C 132.128906 281.136719 132.308594 281.179688 132.488281 281.179688 C 132.839844 281.179688 133.183594 281 133.375 280.675781 C 133.667969 280.191406 133.507812 279.558594 133.019531 279.265625 Z M 90.484375 140.714844 C 90.632812 140.789062 90.789062 140.824219 90.941406 140.824219 C 91.320312 140.824219 91.683594 140.613281 91.867188 140.246094 C 92.117188 139.742188 91.910156 139.125 91.402344 138.867188 C 90.890625 138.617188 90.273438 138.824219 90.019531 139.335938 C 89.765625 139.84375 89.972656 140.464844 90.484375 140.714844 Z M 92.355469 137.03125 C 92.511719 137.113281 92.679688 137.152344 92.84375 137.152344 C 93.210938 137.152344 93.566406 136.964844 93.753906 136.617188 C 94.027344 136.117188 93.839844 135.488281 93.339844 135.222656 C 92.839844 134.949219 92.210938 135.132812 91.941406 135.632812 C 91.667969 136.132812 91.855469 136.757812 92.355469 137.03125 Z M 281.210938 136.4375 C 281.402344 136.777344 281.753906 136.972656 282.121094 136.972656 C 282.285156 136.972656 282.453125 136.933594 282.613281 136.84375 C 283.113281 136.578125 283.296875 135.949219 283.023438 135.449219 C 282.75 134.949219 282.125 134.761719 281.625 135.035156 C 281.125 135.308594 280.9375 135.9375 281.210938 136.4375 Z M 94.367188 133.421875 C 94.53125 133.519531 94.710938 133.566406 94.890625 133.566406 C 95.242188 133.566406 95.582031 133.386719 95.777344 133.0625 C 96.066406 132.570312 95.90625 131.9375 95.417969 131.648438 C 94.925781 131.355469 94.292969 131.519531 94.003906 132.003906 C 93.714844 132.492188 93.875 133.128906 94.367188 133.421875 Z M 284.847656 143.738281 C 285.023438 144.117188 285.394531 144.347656 285.789062 144.347656 C 285.929688 144.347656 286.074219 144.316406 286.214844 144.253906 C 286.730469 144.015625 286.960938 143.40625 286.730469 142.886719 C 286.496094 142.371094 285.882812 142.140625 285.363281 142.371094 C 284.847656 142.609375 284.613281 143.21875 284.847656 143.738281 Z M 84.460938 156.109375 C 84.566406 156.140625 84.667969 156.15625 84.773438 156.15625 C 85.210938 156.15625 85.617188 155.878906 85.757812 155.433594 C 85.925781 154.894531 85.621094 154.316406 85.082031 154.140625 C 84.539062 153.96875 83.957031 154.273438 83.785156 154.816406 C 83.617188 155.359375 83.921875 155.941406 84.460938 156.109375 Z M 85.746094 152.175781 C 85.859375 152.21875 85.976562 152.234375 86.089844 152.234375 C 86.515625 152.234375 86.910156 151.96875 87.0625 151.554688 C 87.25 151.015625 86.972656 150.425781 86.4375 150.234375 C 85.902344 150.042969 85.3125 150.320312 85.121094 150.855469 C 84.925781 151.394531 85.203125 151.984375 85.746094 152.175781 Z M 286.449219 147.480469 C 286.617188 147.882812 286.996094 148.125 287.402344 148.125 C 287.53125 148.125 287.667969 148.105469 287.789062 148.050781 C 288.320312 147.835938 288.574219 147.234375 288.363281 146.707031 C 288.152344 146.179688 287.546875 145.921875 287.015625 146.140625 C 286.492188 146.351562 286.238281 146.953125 286.449219 147.480469 Z M 159.3125 290.449219 C 158.761719 290.300781 158.191406 290.625 158.042969 291.171875 C 157.894531 291.722656 158.21875 292.292969 158.765625 292.441406 C 158.859375 292.464844 158.949219 292.476562 159.039062 292.476562 C 159.492188 292.476562 159.910156 292.179688 160.035156 291.71875 C 160.183594 291.167969 159.859375 290.601562 159.3125 290.449219 Z M 87.175781 148.292969 C 87.304688 148.347656 87.433594 148.367188 87.5625 148.367188 C 87.96875 148.367188 88.355469 148.125 88.519531 147.722656 C 88.730469 147.191406 88.472656 146.59375 87.949219 146.382812 C 87.417969 146.171875 86.820312 146.421875 86.605469 146.953125 C 86.390625 147.480469 86.648438 148.082031 87.175781 148.292969 Z M 88.757812 144.476562 C 88.894531 144.535156 89.035156 144.5625 89.179688 144.5625 C 89.570312 144.5625 89.949219 144.335938 90.117188 143.953125 C 90.355469 143.433594 90.117188 142.824219 89.601562 142.59375 C 89.082031 142.359375 88.472656 142.59375 88.242188 143.109375 C 88.003906 143.628906 88.234375 144.242188 88.757812 144.476562 Z M 283.105469 140.050781 C 283.28125 140.414062 283.644531 140.625 284.027344 140.625 C 284.183594 140.625 284.335938 140.585938 284.484375 140.515625 C 284.996094 140.261719 285.203125 139.644531 284.949219 139.132812 C 284.691406 138.625 284.074219 138.417969 283.5625 138.667969 C 283.058594 138.921875 282.847656 139.542969 283.105469 140.050781 Z M 294.414062 173.96875 C 293.847656 174.035156 293.441406 174.546875 293.507812 175.113281 C 293.570312 175.636719 294.011719 176.023438 294.535156 176.023438 C 294.570312 176.023438 294.609375 176.023438 294.652344 176.019531 C 295.21875 175.953125 295.621094 175.441406 295.554688 174.875 C 295.492188 174.308594 294.976562 173.90625 294.414062 173.96875 Z M 295.125 182.191406 C 294.558594 182.210938 294.117188 182.691406 294.140625 183.257812 C 294.164062 183.8125 294.617188 184.246094 295.167969 184.246094 L 295.210938 184.246094 C 295.78125 184.226562 296.226562 183.746094 296.199219 183.179688 C 296.179688 182.609375 295.699219 182.164062 295.125 182.191406 Z M 293.898438 179.179688 C 293.941406 179.722656 294.394531 180.132812 294.929688 180.132812 C 294.957031 180.132812 294.980469 180.128906 295.007812 180.128906 C 295.574219 180.082031 296.003906 179.585938 295.957031 179.019531 C 295.910156 178.453125 295.414062 178.03125 294.847656 178.070312 C 294.28125 178.117188 293.859375 178.613281 293.898438 179.179688 Z M 293.824219 169.886719 C 293.261719 169.972656 292.875 170.5 292.960938 171.066406 C 293.039062 171.570312 293.476562 171.9375 293.976562 171.9375 C 294.027344 171.9375 294.085938 171.929688 294.136719 171.925781 C 294.699219 171.839844 295.085938 171.308594 294.996094 170.746094 C 294.910156 170.183594 294.382812 169.796875 293.824219 169.886719 Z M 289.222656 155.167969 C 289.363281 155.605469 289.769531 155.882812 290.207031 155.882812 C 290.3125 155.882812 290.414062 155.867188 290.523438 155.835938 C 291.0625 155.660156 291.363281 155.085938 291.1875 154.542969 C 291.191406 154.542969 291.191406 154.542969 291.191406 154.542969 C 291.019531 154 290.441406 153.699219 289.894531 153.871094 C 289.351562 154.042969 289.054688 154.625 289.222656 155.167969 Z M 287.914062 151.300781 C 288.0625 151.71875 288.460938 151.980469 288.882812 151.980469 C 288.996094 151.980469 289.117188 151.960938 289.234375 151.917969 C 289.765625 151.722656 290.042969 151.136719 289.851562 150.597656 C 289.65625 150.0625 289.070312 149.785156 288.53125 149.976562 C 287.996094 150.171875 287.71875 150.765625 287.914062 151.300781 Z M 293.074219 165.828125 C 292.511719 165.9375 292.148438 166.476562 292.261719 167.039062 L 292.253906 167.039062 C 292.351562 167.527344 292.785156 167.875 293.269531 167.875 C 293.332031 167.875 293.398438 167.871094 293.464844 167.855469 C 294.023438 167.746094 294.390625 167.203125 294.28125 166.640625 C 294.171875 166.085938 293.632812 165.71875 293.074219 165.828125 Z M 290.390625 159.085938 C 290.511719 159.542969 290.929688 159.84375 291.382812 159.84375 C 291.472656 159.84375 291.5625 159.832031 291.65625 159.804688 C 292.203125 159.652344 292.527344 159.085938 292.378906 158.539062 C 292.222656 157.988281 291.65625 157.660156 291.109375 157.816406 C 290.558594 157.964844 290.238281 158.53125 290.390625 159.085938 Z M 292.167969 161.800781 C 291.617188 161.933594 291.269531 162.488281 291.398438 163.042969 C 291.511719 163.519531 291.933594 163.835938 292.40625 163.835938 C 292.480469 163.835938 292.558594 163.832031 292.640625 163.8125 C 293.195312 163.683594 293.539062 163.125 293.40625 162.570312 C 293.40625 162.574219 293.40625 162.574219 293.40625 162.574219 C 293.277344 162.019531 292.722656 161.671875 292.167969 161.800781 Z M 83.332031 160.078125 C 83.425781 160.105469 83.519531 160.117188 83.605469 160.117188 C 84.058594 160.117188 84.476562 159.816406 84.601562 159.359375 C 84.75 158.804688 84.425781 158.238281 83.878906 158.089844 C 83.328125 157.941406 82.761719 158.265625 82.613281 158.8125 C 82.460938 159.363281 82.785156 159.929688 83.332031 160.078125 Z M 84.652344 215.894531 L 84.652344 215.890625 C 84.503906 215.34375 83.929688 215.019531 83.386719 215.171875 C 82.832031 215.324219 82.515625 215.890625 82.664062 216.441406 C 82.792969 216.894531 83.203125 217.199219 83.660156 217.199219 C 83.746094 217.199219 83.839844 217.183594 83.929688 217.160156 C 84.484375 217.007812 84.800781 216.441406 84.652344 215.894531 Z M 80.640625 201.003906 C 81.203125 200.941406 81.613281 200.429688 81.542969 199.863281 C 81.484375 199.296875 80.972656 198.886719 80.40625 198.957031 C 79.839844 199.023438 79.429688 199.53125 79.496094 200.101562 C 79.558594 200.625 80.003906 201.011719 80.523438 201.011719 C 80.558594 201.011719 80.601562 201.007812 80.640625 201.003906 Z M 93.808594 238.546875 C 93.535156 238.046875 92.90625 237.863281 92.40625 238.136719 C 91.90625 238.410156 91.726562 239.039062 91.996094 239.539062 C 92.183594 239.878906 92.535156 240.074219 92.902344 240.074219 C 93.066406 240.074219 93.238281 240.03125 93.394531 239.949219 C 93.898438 239.675781 94.078125 239.046875 93.808594 238.546875 Z M 81.976562 209.148438 C 82.535156 209.039062 82.902344 208.496094 82.792969 207.9375 C 82.683594 207.378906 82.140625 207.011719 81.582031 207.121094 C 81.023438 207.230469 80.65625 207.769531 80.765625 208.328125 C 80.863281 208.824219 81.292969 209.164062 81.777344 209.164062 C 81.84375 209.164062 81.910156 209.15625 81.976562 209.148438 Z M 81.230469 205.089844 C 81.792969 205.003906 82.179688 204.476562 82.089844 203.914062 C 82.003906 203.347656 81.476562 202.960938 80.914062 203.046875 C 80.355469 203.136719 79.96875 203.664062 80.054688 204.222656 C 80.132812 204.734375 80.570312 205.101562 81.070312 205.101562 C 81.121094 205.101562 81.179688 205.09375 81.230469 205.089844 Z M 85.8125 219.8125 C 85.636719 219.265625 85.058594 218.96875 84.519531 219.136719 C 83.972656 219.3125 83.671875 219.890625 83.84375 220.433594 C 83.984375 220.875 84.390625 221.152344 84.828125 221.152344 C 84.929688 221.152344 85.035156 221.136719 85.144531 221.109375 C 85.683594 220.933594 85.984375 220.355469 85.8125 219.8125 Z M 87.121094 223.683594 C 86.925781 223.144531 86.339844 222.871094 85.804688 223.0625 C 85.265625 223.253906 84.988281 223.84375 85.183594 224.382812 C 85.332031 224.796875 85.730469 225.0625 86.152344 225.0625 C 86.265625 225.0625 86.386719 225.039062 86.5 225 C 87.035156 224.808594 87.3125 224.214844 87.121094 223.683594 Z M 90.179688 231.246094 C 89.949219 230.726562 89.335938 230.496094 88.8125 230.730469 C 88.296875 230.964844 88.066406 231.574219 88.296875 232.09375 C 88.46875 232.476562 88.84375 232.703125 89.242188 232.703125 C 89.378906 232.703125 89.523438 232.671875 89.660156 232.609375 C 90.179688 232.375 90.410156 231.761719 90.179688 231.246094 Z M 91.921875 234.933594 C 91.667969 234.421875 91.050781 234.210938 90.539062 234.46875 C 90.03125 234.722656 89.820312 235.339844 90.078125 235.851562 C 90.257812 236.210938 90.621094 236.421875 91 236.421875 C 91.152344 236.421875 91.308594 236.386719 91.457031 236.316406 C 91.96875 236.0625 92.175781 235.4375 91.921875 234.933594 Z M 88.582031 227.5 C 88.363281 226.96875 87.765625 226.714844 87.234375 226.929688 C 86.710938 227.144531 86.453125 227.742188 86.667969 228.273438 C 86.828125 228.671875 87.214844 228.917969 87.621094 228.917969 C 87.75 228.917969 87.886719 228.890625 88.007812 228.839844 C 88.539062 228.628906 88.792969 228.027344 88.582031 227.5 Z M 82.875 213.171875 C 83.429688 213.039062 83.773438 212.488281 83.644531 211.929688 L 83.644531 211.9375 C 83.515625 211.378906 82.960938 211.035156 82.40625 211.164062 C 81.855469 211.292969 81.507812 211.847656 81.636719 212.398438 C 81.636719 212.40625 81.636719 212.40625 81.636719 212.40625 C 81.746094 212.878906 82.171875 213.199219 82.644531 213.199219 C 82.71875 213.199219 82.796875 213.1875 82.875 213.171875 Z M 80.210938 196.902344 C 80.777344 196.855469 81.199219 196.363281 81.15625 195.796875 C 81.113281 195.226562 80.617188 194.800781 80.050781 194.847656 C 79.484375 194.886719 79.058594 195.382812 79.101562 195.949219 C 79.101562 195.953125 79.101562 195.953125 79.101562 195.953125 C 79.140625 196.496094 79.597656 196.902344 80.132812 196.902344 Z M 80.382812 176.304688 C 80.425781 176.308594 80.460938 176.308594 80.496094 176.308594 C 81.019531 176.308594 81.46875 175.921875 81.523438 175.394531 C 81.589844 174.828125 81.183594 174.320312 80.617188 174.25 C 80.050781 174.191406 79.539062 174.597656 79.476562 175.164062 C 79.410156 175.726562 79.816406 176.234375 80.382812 176.304688 Z M 80.890625 172.203125 C 80.941406 172.214844 80.992188 172.21875 81.042969 172.21875 C 81.542969 172.21875 81.984375 171.855469 82.066406 171.34375 C 82.148438 170.78125 81.761719 170.257812 81.199219 170.167969 C 80.636719 170.082031 80.113281 170.46875 80.023438 171.035156 C 79.9375 171.597656 80.328125 172.121094 80.890625 172.203125 Z M 82.363281 164.089844 C 82.441406 164.105469 82.519531 164.117188 82.597656 164.117188 C 83.066406 164.117188 83.492188 163.796875 83.601562 163.316406 C 83.730469 162.765625 83.386719 162.207031 82.828125 162.078125 C 82.277344 161.949219 81.71875 162.296875 81.589844 162.851562 C 81.460938 163.40625 81.808594 163.960938 82.363281 164.089844 Z M 81.550781 168.132812 C 81.613281 168.148438 81.679688 168.152344 81.742188 168.152344 C 82.230469 168.152344 82.65625 167.808594 82.757812 167.316406 C 82.863281 166.753906 82.492188 166.214844 81.9375 166.109375 C 81.378906 166.003906 80.839844 166.367188 80.730469 166.925781 C 80.621094 167.488281 80.988281 168.027344 81.550781 168.132812 Z M 79.8125 188.660156 C 80.378906 188.660156 80.84375 188.195312 80.84375 187.628906 C 80.84375 187.058594 80.378906 186.597656 79.8125 186.597656 C 79.238281 186.597656 78.78125 187.0625 78.78125 187.628906 C 78.78125 188.203125 79.246094 188.660156 79.8125 188.660156 Z M 79.890625 192.785156 L 79.929688 192.785156 C 80.503906 192.765625 80.945312 192.285156 80.921875 191.71875 C 80.898438 191.144531 80.421875 190.703125 79.855469 190.722656 C 79.28125 190.75 78.839844 191.222656 78.863281 191.792969 C 78.882812 192.351562 79.339844 192.785156 79.890625 192.785156 Z M 79.847656 184.535156 L 79.882812 184.535156 C 80.4375 184.535156 80.894531 184.097656 80.914062 183.542969 C 80.9375 182.972656 80.492188 182.496094 79.925781 182.472656 C 79.355469 182.453125 78.875 182.898438 78.855469 183.464844 C 78.832031 184.035156 79.277344 184.515625 79.847656 184.535156 Z M 80.039062 180.410156 C 80.066406 180.417969 80.089844 180.417969 80.117188 180.417969 C 80.648438 180.417969 81.101562 180.003906 81.140625 179.464844 C 81.183594 178.894531 80.761719 178.402344 80.195312 178.355469 C 79.621094 178.3125 79.125 178.742188 79.085938 179.308594 C 79.042969 179.875 79.46875 180.371094 80.039062 180.410156 Z M 203.863281 292.980469 C 203.300781 293.070312 202.914062 293.59375 203.003906 294.15625 C 203.078125 294.667969 203.519531 295.035156 204.023438 295.035156 C 204.074219 295.035156 204.125 295.027344 204.175781 295.023438 C 204.175781 295.019531 204.175781 295.019531 204.175781 295.019531 C 204.738281 294.9375 205.125 294.40625 205.039062 293.84375 C 204.957031 293.28125 204.425781 292.894531 203.863281 292.980469 Z M 267.160156 258.550781 C 266.777344 258.972656 266.8125 259.621094 267.242188 260.003906 C 267.4375 260.179688 267.679688 260.265625 267.925781 260.265625 C 268.210938 260.265625 268.496094 260.148438 268.695312 259.921875 C 269.070312 259.5 269.035156 258.84375 268.613281 258.46875 C 268.183594 258.085938 267.535156 258.121094 267.160156 258.550781 Z M 264.378906 261.546875 C 263.984375 261.957031 263.992188 262.605469 264.40625 263.003906 C 264.609375 263.195312 264.867188 263.292969 265.121094 263.292969 C 265.390625 263.292969 265.660156 263.183594 265.867188 262.976562 C 266.257812 262.566406 266.246094 261.910156 265.835938 261.519531 C 265.425781 261.121094 264.773438 261.132812 264.378906 261.546875 Z M 267.886719 116.816406 C 268.128906 116.816406 268.375 116.730469 268.570312 116.554688 C 268.996094 116.171875 269.03125 115.523438 268.65625 115.101562 C 268.273438 114.671875 267.625 114.636719 267.195312 115.019531 C 266.773438 115.394531 266.738281 116.046875 267.117188 116.472656 C 267.320312 116.699219 267.601562 116.816406 267.886719 116.816406 Z M 265.078125 113.796875 C 265.335938 113.796875 265.59375 113.699219 265.792969 113.5 C 266.207031 113.109375 266.214844 112.457031 265.820312 112.046875 C 265.421875 111.636719 264.773438 111.625 264.359375 112.023438 C 263.953125 112.414062 263.941406 113.070312 264.335938 113.476562 C 264.539062 113.6875 264.808594 113.796875 265.078125 113.796875 Z M 262.160156 110.878906 C 262.425781 110.878906 262.699219 110.769531 262.902344 110.5625 C 263.292969 110.152344 263.28125 109.496094 262.871094 109.105469 C 262.464844 108.707031 261.808594 108.722656 261.410156 109.136719 C 261.019531 109.542969 261.03125 110.199219 261.441406 110.589844 C 261.644531 110.785156 261.902344 110.878906 262.160156 110.878906 Z M 245.441406 97.914062 C 245.617188 98.027344 245.8125 98.078125 246.003906 98.078125 C 246.335938 98.078125 246.671875 97.914062 246.867188 97.609375 C 247.175781 97.128906 247.042969 96.488281 246.5625 96.179688 C 246.085938 95.871094 245.445312 96.011719 245.136719 96.484375 C 244.828125 96.964844 244.964844 97.601562 245.441406 97.914062 Z M 270.570312 119.941406 C 270.804688 119.941406 271.035156 119.863281 271.230469 119.707031 C 271.671875 119.34375 271.730469 118.691406 271.367188 118.253906 C 271.003906 117.816406 270.355469 117.753906 269.917969 118.117188 C 269.472656 118.480469 269.417969 119.132812 269.777344 119.570312 C 269.984375 119.816406 270.277344 119.941406 270.570312 119.941406 Z M 273.808594 252.054688 C 273.355469 251.710938 272.710938 251.792969 272.367188 252.246094 C 272.019531 252.699219 272.101562 253.34375 272.558594 253.6875 C 272.746094 253.832031 272.964844 253.898438 273.1875 253.898438 C 273.496094 253.898438 273.800781 253.761719 274.003906 253.496094 C 274 253.496094 274 253.496094 274 253.496094 C 274.351562 253.042969 274.261719 252.398438 273.808594 252.054688 Z M 273.140625 123.167969 C 273.359375 123.167969 273.578125 123.101562 273.769531 122.957031 C 274.21875 122.609375 274.304688 121.96875 273.960938 121.511719 C 273.613281 121.058594 272.964844 120.972656 272.515625 121.324219 C 272.0625 121.667969 271.972656 122.3125 272.320312 122.765625 C 272.527344 123.027344 272.832031 123.167969 273.140625 123.167969 Z M 269.820312 255.445312 C 269.457031 255.886719 269.519531 256.535156 269.957031 256.902344 C 270.148438 257.054688 270.386719 257.132812 270.613281 257.132812 C 270.914062 257.132812 271.207031 257.007812 271.414062 256.761719 C 271.773438 256.324219 271.710938 255.671875 271.273438 255.308594 C 270.835938 254.945312 270.183594 255.007812 269.820312 255.445312 Z M 259.128906 108.078125 C 259.410156 108.078125 259.695312 107.960938 259.894531 107.726562 C 260.277344 107.304688 260.242188 106.65625 259.8125 106.273438 C 259.390625 105.898438 258.734375 105.933594 258.359375 106.363281 C 257.976562 106.785156 258.019531 107.4375 258.441406 107.816406 C 258.636719 107.992188 258.886719 108.078125 259.128906 108.078125 Z M 248.894531 274.820312 L 248.898438 274.820312 C 248.429688 275.148438 248.320312 275.792969 248.648438 276.257812 C 248.847656 276.542969 249.167969 276.695312 249.492188 276.695312 C 249.699219 276.695312 249.90625 276.632812 250.085938 276.503906 C 250.550781 276.179688 250.664062 275.535156 250.332031 275.074219 C 250.007812 274.605469 249.363281 274.496094 248.894531 274.820312 Z M 248.832031 100.203125 C 249.011719 100.324219 249.21875 100.386719 249.425781 100.386719 C 249.75 100.386719 250.070312 100.238281 250.269531 99.949219 C 250.59375 99.484375 250.480469 98.839844 250.019531 98.515625 C 249.554688 98.1875 248.910156 98.300781 248.585938 98.761719 C 248.253906 99.230469 248.367188 99.871094 248.832031 100.203125 Z M 245.519531 277.109375 C 245.039062 277.417969 244.902344 278.058594 245.214844 278.53125 C 245.410156 278.835938 245.738281 279.007812 246.078125 279.007812 C 246.269531 279.007812 246.464844 278.949219 246.636719 278.835938 C 247.117188 278.527344 247.25 277.886719 246.941406 277.414062 C 246.632812 276.933594 245.992188 276.800781 245.519531 277.109375 Z M 252.132812 102.613281 C 252.316406 102.757812 252.539062 102.824219 252.753906 102.824219 C 253.066406 102.824219 253.375 102.6875 253.574219 102.417969 C 253.921875 101.96875 253.832031 101.320312 253.378906 100.976562 C 253.382812 100.976562 253.382812 100.976562 253.382812 100.976562 C 252.929688 100.628906 252.28125 100.71875 251.9375 101.171875 C 251.589844 101.625 251.679688 102.269531 252.132812 102.613281 Z M 258.488281 267.210938 C 258.066406 267.585938 258.023438 268.242188 258.40625 268.664062 C 258.613281 268.898438 258.890625 269.011719 259.175781 269.011719 C 259.421875 269.011719 259.664062 268.921875 259.859375 268.753906 C 260.289062 268.371094 260.324219 267.722656 259.945312 267.292969 C 259.566406 266.871094 258.917969 266.828125 258.488281 267.210938 Z M 275.582031 126.488281 C 275.789062 126.488281 275.996094 126.429688 276.175781 126.300781 C 276.640625 125.972656 276.753906 125.328125 276.421875 124.863281 C 276.09375 124.398438 275.453125 124.285156 274.984375 124.617188 C 274.519531 124.945312 274.414062 125.589844 274.738281 126.054688 C 274.9375 126.339844 275.257812 126.488281 275.582031 126.488281 Z M 255.390625 269.867188 C 254.945312 270.230469 254.882812 270.882812 255.25 271.320312 C 255.453125 271.566406 255.75 271.695312 256.042969 271.695312 C 256.277344 271.695312 256.507812 271.617188 256.699219 271.457031 C 257.144531 271.097656 257.203125 270.449219 256.839844 270.011719 C 256.476562 269.566406 255.828125 269.503906 255.390625 269.867188 Z M 252.1875 272.40625 C 251.734375 272.753906 251.652344 273.398438 251.996094 273.851562 C 252.199219 274.117188 252.503906 274.257812 252.816406 274.257812 C 253.035156 274.257812 253.253906 274.191406 253.441406 274.046875 C 253.894531 273.703125 253.984375 273.050781 253.636719 272.601562 C 253.292969 272.148438 252.640625 272.0625 252.1875 272.40625 Z M 255.992188 105.394531 C 256.292969 105.394531 256.585938 105.265625 256.785156 105.015625 C 257.152344 104.578125 257.085938 103.929688 256.648438 103.5625 C 256.210938 103.203125 255.558594 103.261719 255.199219 103.707031 C 254.832031 104.144531 254.898438 104.792969 255.339844 105.15625 C 255.527344 105.316406 255.761719 105.394531 255.992188 105.394531 Z M 162.851562 83.683594 C 162.929688 83.683594 163.007812 83.671875 163.085938 83.660156 L 163.089844 83.660156 C 163.640625 83.523438 163.988281 82.972656 163.851562 82.414062 C 163.722656 81.863281 163.171875 81.519531 162.617188 81.648438 C 162.0625 81.777344 161.71875 82.332031 161.847656 82.890625 C 161.960938 83.363281 162.382812 83.683594 162.851562 83.683594 Z M 292.683594 211.070312 C 292.125 210.941406 291.570312 211.285156 291.441406 211.839844 C 291.3125 212.394531 291.65625 212.953125 292.214844 213.082031 C 292.292969 213.097656 292.367188 213.105469 292.445312 213.105469 C 292.914062 213.105469 293.34375 212.785156 293.449219 212.308594 C 293.578125 211.757812 293.234375 211.199219 292.683594 211.070312 Z M 293.503906 207.027344 C 292.941406 206.921875 292.398438 207.285156 292.292969 207.84375 C 292.183594 208.40625 292.550781 208.945312 293.109375 209.054688 C 293.179688 209.066406 293.238281 209.070312 293.308594 209.070312 C 293.792969 209.070312 294.222656 208.730469 294.316406 208.234375 C 294.425781 207.679688 294.058594 207.136719 293.503906 207.027344 Z M 291.703125 215.082031 C 291.15625 214.925781 290.589844 215.25 290.441406 215.804688 C 290.285156 216.347656 290.609375 216.917969 291.164062 217.070312 C 291.25 217.089844 291.34375 217.105469 291.433594 217.105469 C 291.882812 217.105469 292.300781 216.804688 292.425781 216.347656 C 292.578125 215.796875 292.253906 215.230469 291.703125 215.082031 Z M 294.164062 202.957031 C 293.601562 202.867188 293.074219 203.253906 292.988281 203.816406 C 292.90625 204.378906 293.292969 204.90625 293.851562 204.992188 C 293.90625 205.003906 293.957031 205.003906 294.007812 205.003906 C 294.507812 205.003906 294.945312 204.640625 295.027344 204.132812 C 295.117188 203.570312 294.722656 203.042969 294.164062 202.957031 Z M 290.578125 219.050781 C 290.03125 218.875 289.457031 219.179688 289.28125 219.722656 C 289.109375 220.261719 289.414062 220.84375 289.957031 221.015625 C 290.058594 221.046875 290.160156 221.0625 290.265625 221.0625 C 290.703125 221.0625 291.109375 220.78125 291.25 220.34375 C 291.421875 219.796875 291.121094 219.21875 290.578125 219.050781 Z M 276.222656 248.703125 C 275.757812 248.375 275.113281 248.480469 274.785156 248.949219 C 274.453125 249.414062 274.566406 250.054688 275.03125 250.382812 C 275.210938 250.511719 275.421875 250.574219 275.628906 250.574219 C 275.949219 250.574219 276.269531 250.425781 276.46875 250.136719 C 276.800781 249.671875 276.6875 249.027344 276.222656 248.703125 Z M 295.214844 190.628906 C 294.648438 190.609375 294.167969 191.050781 294.148438 191.621094 C 294.125 192.1875 294.570312 192.664062 295.136719 192.6875 C 295.152344 192.691406 295.164062 192.691406 295.179688 192.691406 C 295.730469 192.691406 296.1875 192.253906 296.210938 191.695312 C 296.230469 191.128906 295.785156 190.648438 295.214844 190.628906 Z M 294.671875 198.859375 C 294.105469 198.796875 293.59375 199.203125 293.527344 199.769531 C 293.464844 200.332031 293.867188 200.84375 294.4375 200.910156 C 294.476562 200.914062 294.519531 200.914062 294.554688 200.914062 C 295.070312 200.914062 295.519531 200.527344 295.582031 200 C 295.640625 199.433594 295.234375 198.925781 294.671875 198.859375 Z M 295.023438 194.75 C 294.453125 194.707031 293.957031 195.128906 293.914062 195.695312 C 293.875 196.269531 294.296875 196.765625 294.863281 196.804688 C 294.894531 196.804688 294.921875 196.8125 294.945312 196.8125 C 295.476562 196.8125 295.929688 196.398438 295.972656 195.855469 C 296.011719 195.285156 295.589844 194.789062 295.023438 194.75 Z M 296.285156 187.339844 C 296.285156 186.773438 295.824219 186.308594 295.25 186.316406 C 294.683594 186.316406 294.222656 186.773438 294.222656 187.347656 C 294.222656 187.382812 294.222656 187.414062 294.230469 187.445312 C 294.222656 187.476562 294.222656 187.503906 294.222656 187.535156 C 294.222656 188.105469 294.683594 188.5625 295.253906 188.5625 C 295.824219 188.5625 296.285156 188.105469 296.285156 187.535156 C 296.285156 187.5 296.28125 187.46875 296.28125 187.4375 C 296.28125 187.40625 296.285156 187.375 296.285156 187.339844 Z M 280.65625 241.726562 C 280.167969 241.441406 279.53125 241.597656 279.242188 242.089844 C 278.949219 242.578125 279.109375 243.207031 279.597656 243.5 C 279.765625 243.601562 279.945312 243.644531 280.125 243.644531 C 280.476562 243.644531 280.820312 243.464844 281.011719 243.144531 C 281.304688 242.65625 281.140625 242.023438 280.65625 241.726562 Z M 280.078125 133.394531 C 280.253906 133.394531 280.4375 133.351562 280.605469 133.25 C 281.09375 132.957031 281.253906 132.324219 280.960938 131.839844 C 280.667969 131.347656 280.039062 131.191406 279.546875 131.484375 C 279.058594 131.773438 278.898438 132.40625 279.191406 132.894531 C 279.382812 133.214844 279.722656 133.394531 280.078125 133.394531 Z M 278.507812 245.253906 C 278.027344 244.945312 277.386719 245.085938 277.078125 245.558594 L 277.078125 245.5625 C 276.769531 246.039062 276.902344 246.675781 277.382812 246.988281 C 277.558594 247.101562 277.75 247.152344 277.945312 247.152344 C 278.277344 247.152344 278.609375 246.988281 278.808594 246.683594 C 279.121094 246.207031 278.980469 245.570312 278.507812 245.253906 Z M 277.898438 129.902344 C 278.089844 129.902344 278.285156 129.847656 278.453125 129.734375 C 278.933594 129.421875 279.066406 128.789062 278.757812 128.308594 C 278.449219 127.832031 277.808594 127.695312 277.332031 128.003906 C 276.855469 128.316406 276.71875 128.957031 277.03125 129.433594 C 277.226562 129.734375 277.558594 129.902344 277.898438 129.902344 Z M 286.269531 230.679688 C 285.75 230.449219 285.140625 230.679688 284.910156 231.203125 C 284.671875 231.71875 284.910156 232.332031 285.425781 232.5625 C 285.5625 232.625 285.707031 232.65625 285.847656 232.65625 C 286.238281 232.65625 286.617188 232.429688 286.789062 232.046875 C 287.023438 231.527344 286.789062 230.914062 286.269531 230.679688 Z M 289.289062 222.984375 C 288.753906 222.789062 288.167969 223.066406 287.972656 223.601562 C 287.78125 224.140625 288.058594 224.730469 288.59375 224.921875 C 288.707031 224.964844 288.828125 224.984375 288.945312 224.984375 C 289.367188 224.984375 289.761719 224.722656 289.914062 224.304688 C 290.105469 223.769531 289.828125 223.175781 289.289062 222.984375 Z M 282.667969 238.121094 C 282.167969 237.847656 281.542969 238.03125 281.269531 238.53125 C 280.996094 239.03125 281.175781 239.660156 281.683594 239.929688 C 281.835938 240.015625 282.007812 240.058594 282.171875 240.058594 C 282.539062 240.058594 282.894531 239.863281 283.078125 239.523438 C 283.351562 239.023438 283.167969 238.394531 282.667969 238.121094 Z M 287.859375 226.859375 C 287.328125 226.648438 286.722656 226.902344 286.511719 227.433594 C 286.300781 227.957031 286.554688 228.5625 287.085938 228.773438 C 287.207031 228.824219 287.34375 228.851562 287.464844 228.851562 C 287.878906 228.851562 288.265625 228.601562 288.425781 228.199219 C 288.636719 227.675781 288.382812 227.078125 287.859375 226.859375 Z M 284.539062 234.4375 C 284.03125 234.1875 283.414062 234.390625 283.15625 234.902344 C 282.902344 235.414062 283.113281 236.03125 283.625 236.285156 C 283.769531 236.355469 283.925781 236.394531 284.078125 236.394531 C 284.460938 236.394531 284.828125 236.179688 285.007812 235.820312 C 285.257812 235.308594 285.046875 234.691406 284.539062 234.4375 Z M 261.488281 264.433594 C 261.074219 264.828125 261.066406 265.480469 261.457031 265.890625 C 261.664062 266.101562 261.933594 266.207031 262.199219 266.207031 C 262.457031 266.207031 262.714844 266.113281 262.917969 265.921875 C 263.328125 265.523438 263.339844 264.871094 262.949219 264.464844 C 262.550781 264.050781 261.894531 264.039062 261.488281 264.433594 Z M 191.664062 294.148438 C 191.097656 294.167969 190.65625 294.648438 190.675781 295.214844 C 190.695312 295.769531 191.15625 296.210938 191.707031 296.210938 C 191.71875 296.210938 191.734375 296.210938 191.75 296.203125 C 192.316406 296.183594 192.757812 295.703125 192.738281 295.136719 C 192.710938 294.570312 192.234375 294.125 191.664062 294.148438 Z M 187.582031 294.222656 C 187.011719 294.222656 186.546875 294.683594 186.550781 295.253906 C 186.550781 295.824219 187.011719 296.285156 187.582031 296.285156 C 188.148438 296.285156 188.613281 295.824219 188.613281 295.253906 C 188.609375 294.683594 188.148438 294.222656 187.582031 294.222656 Z M 183.261719 80.925781 L 183.304688 80.925781 C 183.875 80.90625 184.320312 80.425781 184.292969 79.855469 C 184.273438 79.285156 183.792969 78.84375 183.226562 78.863281 C 182.65625 78.882812 182.210938 79.363281 182.238281 79.9375 C 182.257812 80.492188 182.710938 80.925781 183.261719 80.925781 Z M 203.675781 82.054688 C 203.730469 82.066406 203.78125 82.070312 203.832031 82.070312 C 204.332031 82.070312 204.777344 81.703125 204.851562 81.1875 C 204.933594 80.625 204.550781 80.101562 203.988281 80.019531 C 203.425781 79.929688 202.898438 80.316406 202.8125 80.882812 C 202.730469 81.445312 203.117188 81.972656 203.675781 82.054688 Z M 183.496094 294.148438 C 182.921875 294.125 182.449219 294.570312 182.425781 295.140625 C 182.402344 295.710938 182.851562 296.1875 183.417969 296.210938 L 183.457031 296.210938 C 184.011719 296.210938 184.464844 295.777344 184.484375 295.21875 C 184.503906 294.648438 184.0625 294.167969 183.496094 294.148438 Z M 191.476562 80.914062 L 191.515625 80.914062 C 192.066406 80.914062 192.527344 80.476562 192.546875 79.921875 C 192.566406 79.355469 192.121094 78.875 191.550781 78.855469 C 190.984375 78.832031 190.507812 79.277344 190.484375 79.847656 C 190.464844 80.414062 190.90625 80.894531 191.476562 80.914062 Z M 195.558594 81.140625 L 195.636719 81.140625 C 196.171875 81.140625 196.621094 80.730469 196.660156 80.1875 C 196.703125 79.621094 196.28125 79.125 195.710938 79.085938 C 195.140625 79.039062 194.652344 79.46875 194.605469 80.035156 C 194.5625 80.601562 194.992188 81.097656 195.558594 81.140625 Z M 199.625 81.519531 C 199.667969 81.523438 199.703125 81.527344 199.742188 81.527344 C 200.257812 81.527344 200.707031 81.136719 200.765625 80.613281 C 200.832031 80.042969 200.425781 79.535156 199.859375 79.472656 C 199.289062 79.410156 198.78125 79.816406 198.71875 80.378906 C 198.65625 80.945312 199.058594 81.457031 199.625 81.519531 Z M 199.816406 293.523438 C 199.25 293.589844 198.84375 294.101562 198.910156 294.667969 C 198.972656 295.195312 199.414062 295.582031 199.929688 295.582031 C 199.972656 295.582031 200.011719 295.582031 200.046875 295.574219 C 200.617188 295.507812 201.023438 294.996094 200.957031 294.429688 C 200.894531 293.863281 200.378906 293.460938 199.816406 293.523438 Z M 195.75 293.914062 C 195.183594 293.957031 194.753906 294.453125 194.796875 295.019531 C 194.835938 295.558594 195.289062 295.972656 195.824219 295.972656 C 195.851562 295.972656 195.878906 295.972656 195.902344 295.96875 C 196.46875 295.925781 196.898438 295.429688 196.851562 294.863281 C 196.8125 294.296875 196.316406 293.867188 195.75 293.914062 Z M 187.390625 80.84375 C 187.960938 80.84375 188.421875 80.378906 188.421875 79.8125 C 188.417969 79.238281 187.960938 78.78125 187.386719 78.78125 C 186.820312 78.78125 186.359375 79.246094 186.359375 79.8125 C 186.359375 80.382812 186.820312 80.84375 187.390625 80.84375 Z M 166.882812 82.816406 C 166.953125 82.816406 167.019531 82.8125 167.085938 82.800781 C 167.640625 82.695312 168.007812 82.152344 167.898438 81.589844 C 167.792969 81.035156 167.25 80.667969 166.6875 80.777344 C 166.132812 80.882812 165.765625 81.425781 165.875 81.984375 C 165.972656 82.476562 166.40625 82.816406 166.882812 82.816406 Z M 179.417969 293.921875 C 178.84375 293.878906 178.351562 294.300781 178.308594 294.867188 C 178.265625 295.4375 178.691406 295.9375 179.257812 295.976562 C 179.28125 295.976562 179.3125 295.980469 179.339844 295.980469 C 179.871094 295.980469 180.324219 295.566406 180.367188 295.023438 C 180.40625 294.457031 179.984375 293.960938 179.417969 293.921875 Z M 170.953125 82.113281 C 171.003906 82.113281 171.054688 82.105469 171.105469 82.101562 C 171.667969 82.015625 172.054688 81.488281 171.96875 80.921875 C 171.886719 80.359375 171.355469 79.972656 170.792969 80.058594 C 170.230469 80.148438 169.84375 80.671875 169.929688 81.242188 C 170.007812 81.746094 170.453125 82.113281 170.953125 82.113281 Z M 163.269531 291.457031 C 162.71875 291.328125 162.164062 291.671875 162.035156 292.222656 C 161.90625 292.78125 162.25 293.332031 162.808594 293.460938 C 162.882812 293.480469 162.960938 293.488281 163.039062 293.488281 C 163.507812 293.488281 163.929688 293.167969 164.042969 292.691406 C 164.171875 292.136719 163.828125 291.585938 163.269531 291.457031 Z M 167.269531 292.300781 C 166.710938 292.191406 166.167969 292.558594 166.058594 293.121094 C 165.953125 293.679688 166.324219 294.21875 166.878906 294.328125 C 166.945312 294.335938 167.011719 294.347656 167.074219 294.347656 C 167.558594 294.347656 167.992188 294.003906 168.085938 293.507812 C 168.195312 292.949219 167.828125 292.410156 167.269531 292.300781 Z M 175.34375 293.539062 C 174.78125 293.472656 174.273438 293.878906 174.203125 294.445312 C 174.136719 295.007812 174.546875 295.519531 175.113281 295.585938 C 175.152344 295.589844 175.191406 295.589844 175.230469 295.589844 C 175.746094 295.589844 176.195312 295.203125 176.25 294.679688 C 176.320312 294.109375 175.910156 293.601562 175.34375 293.539062 Z M 171.296875 292.996094 C 170.730469 292.910156 170.203125 293.296875 170.121094 293.859375 C 170.035156 294.425781 170.421875 294.953125 170.984375 295.035156 C 171.039062 295.042969 171.089844 295.050781 171.144531 295.050781 C 171.644531 295.050781 172.082031 294.683594 172.160156 294.171875 C 172.246094 293.609375 171.859375 293.085938 171.296875 292.996094 Z M 179.144531 81.164062 L 179.226562 81.164062 C 179.792969 81.117188 180.214844 80.621094 180.175781 80.054688 C 180.128906 79.488281 179.632812 79.058594 179.066406 79.105469 C 178.5 79.148438 178.078125 79.648438 178.117188 80.214844 C 178.160156 80.753906 178.613281 81.164062 179.144531 81.164062 Z M 175.039062 81.558594 C 175.078125 81.558594 175.117188 81.558594 175.160156 81.554688 C 175.71875 81.488281 176.128906 80.976562 176.0625 80.410156 C 176 79.84375 175.488281 79.441406 174.921875 79.503906 C 174.355469 79.570312 173.953125 80.082031 174.015625 80.648438 C 174.074219 81.171875 174.519531 81.558594 175.039062 81.558594 Z M 215.847656 290.425781 C 215.296875 290.578125 214.972656 291.148438 215.128906 291.691406 C 215.25 292.152344 215.667969 292.449219 216.121094 292.449219 C 216.210938 292.449219 216.304688 292.441406 216.394531 292.414062 C 216.390625 292.414062 216.390625 292.414062 216.390625 292.414062 C 216.941406 292.265625 217.265625 291.699219 217.113281 291.148438 C 216.960938 290.601562 216.394531 290.277344 215.847656 290.425781 Z M 231.074219 90.101562 C 231.207031 90.164062 231.351562 90.191406 231.488281 90.191406 C 231.886719 90.191406 232.261719 89.964844 232.433594 89.582031 C 232.664062 89.0625 232.433594 88.453125 231.914062 88.21875 C 231.390625 87.988281 230.785156 88.21875 230.550781 88.742188 C 230.320312 89.261719 230.550781 89.871094 231.074219 90.101562 Z M 231.203125 284.910156 C 230.679688 285.140625 230.453125 285.75 230.6875 286.269531 C 230.855469 286.652344 231.230469 286.878906 231.625 286.878906 C 231.769531 286.878906 231.914062 286.851562 232.046875 286.789062 C 232.566406 286.554688 232.800781 285.945312 232.566406 285.425781 C 232.332031 284.902344 231.722656 284.671875 231.203125 284.910156 Z M 227.453125 286.507812 C 226.929688 286.71875 226.671875 287.316406 226.886719 287.847656 C 227.046875 288.25 227.433594 288.492188 227.839844 288.492188 C 227.96875 288.492188 228.097656 288.464844 228.226562 288.414062 C 228.753906 288.203125 229.011719 287.601562 228.792969 287.074219 C 228.582031 286.546875 227.980469 286.289062 227.453125 286.507812 Z M 234.773438 91.84375 C 234.921875 91.917969 235.078125 91.953125 235.234375 91.953125 C 235.609375 91.953125 235.976562 91.742188 236.15625 91.378906 C 236.410156 90.871094 236.195312 90.25 235.6875 90 C 235.179688 89.746094 234.558594 89.953125 234.304688 90.464844 C 234.058594 90.972656 234.265625 91.59375 234.773438 91.84375 Z M 238.507812 281.285156 C 238.007812 281.558594 237.820312 282.183594 238.09375 282.683594 C 238.28125 283.027344 238.636719 283.21875 239 283.21875 C 239.167969 283.21875 239.335938 283.175781 239.492188 283.09375 C 239.992188 282.820312 240.175781 282.195312 239.902344 281.695312 C 239.628906 281.195312 239.007812 281.011719 238.507812 281.285156 Z M 234.886719 283.167969 C 234.378906 283.417969 234.171875 284.039062 234.421875 284.546875 C 234.605469 284.910156 234.96875 285.121094 235.347656 285.121094 C 235.5 285.121094 235.660156 285.085938 235.804688 285.011719 C 236.316406 284.757812 236.523438 284.140625 236.273438 283.628906 C 236.015625 283.121094 235.398438 282.914062 234.886719 283.167969 Z M 227.304688 88.5 C 227.429688 88.550781 227.558594 88.578125 227.6875 88.578125 C 228.09375 88.578125 228.480469 88.328125 228.640625 87.925781 C 228.855469 87.402344 228.597656 86.796875 228.070312 86.585938 C 227.542969 86.375 226.9375 86.632812 226.726562 87.160156 C 226.515625 87.691406 226.773438 88.289062 227.304688 88.5 Z M 241.964844 95.753906 C 242.128906 95.851562 242.3125 95.898438 242.492188 95.898438 C 242.84375 95.898438 243.1875 95.722656 243.378906 95.398438 C 243.671875 94.90625 243.507812 94.273438 243.023438 93.980469 C 243.015625 93.980469 243.015625 93.980469 243.015625 93.980469 C 242.527344 93.691406 241.898438 93.851562 241.605469 94.339844 C 241.316406 94.828125 241.476562 95.464844 241.964844 95.753906 Z M 238.410156 93.730469 C 238.5625 93.8125 238.734375 93.855469 238.898438 93.855469 C 239.265625 93.855469 239.621094 93.660156 239.804688 93.320312 C 240.078125 92.820312 239.894531 92.191406 239.394531 91.917969 C 238.894531 91.648438 238.265625 91.835938 237.996094 92.335938 C 237.722656 92.835938 237.910156 93.457031 238.410156 93.730469 Z M 242.046875 279.265625 C 241.5625 279.550781 241.398438 280.1875 241.691406 280.675781 C 241.882812 281 242.230469 281.179688 242.578125 281.179688 C 242.757812 281.179688 242.941406 281.136719 243.105469 281.039062 C 243.105469 281.03125 243.105469 281.03125 243.105469 281.03125 C 243.59375 280.742188 243.753906 280.109375 243.464844 279.621094 C 243.171875 279.128906 242.539062 278.96875 242.046875 279.265625 Z M 223.640625 287.960938 C 223.101562 288.152344 222.824219 288.746094 223.015625 289.28125 C 223.164062 289.703125 223.5625 289.960938 223.984375 289.960938 C 224.101562 289.960938 224.222656 289.941406 224.335938 289.898438 C 224.871094 289.707031 225.148438 289.121094 224.953125 288.585938 C 224.761719 288.046875 224.175781 287.769531 223.640625 287.960938 Z M 211.882812 291.433594 C 211.332031 291.5625 210.988281 292.117188 211.117188 292.671875 C 211.230469 293.148438 211.652344 293.464844 212.121094 293.464844 C 212.199219 293.464844 212.277344 293.460938 212.355469 293.441406 C 212.910156 293.3125 213.257812 292.753906 213.128906 292.203125 C 213 291.648438 212.441406 291.300781 211.882812 291.433594 Z M 215.664062 84.589844 C 215.757812 84.617188 215.847656 84.628906 215.9375 84.628906 C 216.390625 84.628906 216.808594 84.324219 216.933594 83.863281 C 217.082031 83.316406 216.757812 82.75 216.203125 82.601562 C 216.210938 82.601562 216.210938 82.601562 216.210938 82.601562 C 215.660156 82.453125 215.089844 82.777344 214.941406 83.324219 C 214.792969 83.875 215.117188 84.441406 215.664062 84.589844 Z M 207.890625 292.285156 C 207.332031 292.394531 206.964844 292.9375 207.074219 293.492188 C 207.167969 293.988281 207.601562 294.328125 208.085938 294.328125 C 208.152344 294.328125 208.214844 294.324219 208.28125 294.3125 C 208.84375 294.199219 209.203125 293.664062 209.101562 293.101562 C 208.992188 292.542969 208.453125 292.179688 207.890625 292.285156 Z M 211.703125 83.589844 C 211.78125 83.613281 211.859375 83.617188 211.9375 83.617188 C 212.40625 83.617188 212.828125 83.296875 212.941406 82.824219 C 213.066406 82.265625 212.71875 81.714844 212.167969 81.585938 C 211.613281 81.457031 211.058594 81.800781 210.929688 82.355469 C 210.800781 82.910156 211.148438 83.460938 211.703125 83.589844 Z M 207.703125 82.746094 C 207.769531 82.761719 207.835938 82.765625 207.898438 82.765625 C 208.382812 82.765625 208.816406 82.421875 208.910156 81.925781 C 209.019531 81.371094 208.652344 80.828125 208.089844 80.71875 C 207.535156 80.617188 206.992188 80.984375 206.882812 81.539062 C 206.78125 82.101562 207.148438 82.644531 207.703125 82.746094 Z M 219.765625 289.269531 C 219.21875 289.441406 218.921875 290.019531 219.089844 290.5625 C 219.230469 291.003906 219.636719 291.285156 220.078125 291.285156 C 220.179688 291.285156 220.28125 291.265625 220.386719 291.234375 C 220.933594 291.0625 221.230469 290.480469 221.0625 289.941406 C 220.886719 289.398438 220.308594 289.09375 219.765625 289.269531 Z M 223.472656 87.046875 C 223.585938 87.085938 223.699219 87.105469 223.820312 87.105469 C 224.242188 87.105469 224.640625 86.84375 224.789062 86.421875 C 224.980469 85.886719 224.699219 85.296875 224.164062 85.105469 C 223.628906 84.917969 223.039062 85.195312 222.84375 85.730469 C 222.652344 86.265625 222.933594 86.855469 223.472656 87.046875 Z M 219.585938 85.742188 C 219.691406 85.773438 219.792969 85.789062 219.894531 85.789062 C 220.335938 85.789062 220.742188 85.507812 220.878906 85.066406 C 221.050781 84.523438 220.746094 83.945312 220.207031 83.777344 C 219.660156 83.601562 219.082031 83.90625 218.910156 84.445312 C 218.742188 84.992188 219.039062 85.570312 219.585938 85.742188 Z M 219.585938 85.742188 " fill-opacity="1" fill-rule="nonzero"/></g><g clip-path="url(#d68ba698ef)"><path fill="#f8f8f8" d="M 192.78125 247.382812 C 192.953125 248.953125 193.054688 250.988281 193.421875 252.976562 C 193.867188 255.382812 195.257812 255.59375 196.878906 253.980469 C 198.410156 252.460938 199.835938 250.816406 201.191406 249.132812 C 214.75 232.28125 223.816406 212.878906 232.269531 193.234375 C 236.957031 182.335938 238.738281 184.011719 226.277344 178.882812 C 208.011719 171.367188 188.867188 170.597656 169.507812 173.234375 C 159.203125 174.636719 149.347656 177.5 140.238281 182.6875 C 138.011719 183.957031 137.121094 185.183594 138.195312 187.832031 C 141.640625 196.3125 144.542969 205.023438 148.261719 213.378906 C 151.457031 220.5625 155.417969 227.410156 159.210938 234.3125 C 159.808594 235.40625 161.285156 236.019531 162.355469 236.851562 C 163.136719 235.78125 164.148438 234.8125 164.65625 233.625 C 167.699219 226.488281 170.480469 219.234375 173.667969 212.164062 C 174.84375 209.5625 176.550781 206.992188 178.609375 205.03125 C 184.820312 199.121094 191.375 200.9375 193.308594 209.320312 C 194.410156 214.082031 194.632812 219.15625 194.492188 224.070312 C 194.273438 231.691406 193.40625 239.296875 192.78125 247.382812 Z M 124.816406 188.753906 C 127.21875 185.421875 129.398438 181.898438 132.101562 178.835938 C 133.765625 176.949219 134.085938 175.300781 133.527344 173.023438 C 130.921875 162.433594 130.132812 151.667969 130.765625 140.800781 C 131.507812 128.105469 140.460938 121.9375 152.679688 125.730469 C 155.957031 126.746094 159.199219 127.980469 162.273438 129.492188 C 169.078125 132.835938 176.1875 134.265625 183.746094 133.863281 C 184.90625 133.800781 186.109375 134.566406 187.296875 134.953125 C 186.5 135.980469 185.902344 137.574219 184.871094 137.933594 C 180.332031 139.511719 175.695312 140.816406 171.042969 142.039062 C 169.210938 142.519531 167.214844 142.355469 165.371094 142.808594 C 164.226562 143.089844 163.230469 143.976562 162.171875 144.589844 C 163.195312 145.113281 164.238281 146.128906 165.238281 146.085938 C 170.558594 145.871094 175.898438 145.621094 181.175781 144.945312 C 189.554688 143.871094 196.546875 139.867188 202.609375 134.074219 C 205.554688 131.257812 208.59375 128.535156 211.703125 125.902344 C 219.757812 119.085938 231.152344 120.179688 237.925781 128.238281 C 244.296875 135.820312 244.902344 144.707031 243.640625 153.875 C 242.824219 159.78125 241.492188 165.636719 240.054688 171.429688 C 239.410156 174.027344 239.59375 175.707031 241.582031 177.796875 C 244.738281 181.125 247.257812 185.058594 250.046875 188.734375 C 221.308594 155.140625 151.605469 156.515625 124.816406 188.753906 " fill-opacity="1" fill-rule="nonzero"/></g><g fill="#274f81" fill-opacity="1"><g transform="translate(100.179967, 180.011707)"><g><path d="M 16.65625 -10.828125 C 18.03125 -10.523438 19.09375 -9.925781 19.84375 -9.03125 C 20.59375 -8.144531 20.96875 -7.003906 20.96875 -5.609375 C 20.96875 -3.804688 20.300781 -2.421875 18.96875 -1.453125 C 17.644531 -0.484375 15.679688 0 13.078125 0 L 3.421875 0 L 3.421875 -21 L 12.484375 -21 C 14.816406 -21 16.628906 -20.53125 17.921875 -19.59375 C 19.210938 -18.65625 19.859375 -17.320312 19.859375 -15.59375 C 19.859375 -14.4375 19.570312 -13.453125 19 -12.640625 C 18.4375 -11.835938 17.65625 -11.234375 16.65625 -10.828125 Z M 5.640625 -19.171875 L 5.640625 -11.546875 L 12.328125 -11.546875 C 14.023438 -11.546875 15.332031 -11.867188 16.25 -12.515625 C 17.175781 -13.171875 17.640625 -14.117188 17.640625 -15.359375 C 17.640625 -16.597656 17.175781 -17.539062 16.25 -18.1875 C 15.332031 -18.84375 14.023438 -19.171875 12.328125 -19.171875 Z M 13.046875 -1.828125 C 14.929688 -1.828125 16.351562 -2.144531 17.3125 -2.78125 C 18.269531 -3.425781 18.75 -4.429688 18.75 -5.796875 C 18.75 -8.410156 16.847656 -9.71875 13.046875 -9.71875 L 5.640625 -9.71875 L 5.640625 -1.828125 Z M 13.046875 -1.828125 "/></g></g></g><g fill="#274f81" fill-opacity="1"><g transform="translate(124.900033, 180.011707)"><g><path d="M 17.765625 0 L 12.953125 -6.75 C 12.421875 -6.6875 11.863281 -6.65625 11.28125 -6.65625 L 5.640625 -6.65625 L 5.640625 0 L 3.421875 0 L 3.421875 -21 L 11.28125 -21 C 13.957031 -21 16.054688 -20.359375 17.578125 -19.078125 C 19.097656 -17.796875 19.859375 -16.035156 19.859375 -13.796875 C 19.859375 -12.160156 19.441406 -10.773438 18.609375 -9.640625 C 17.785156 -8.515625 16.601562 -7.703125 15.0625 -7.203125 L 20.1875 0 Z M 11.21875 -8.546875 C 13.300781 -8.546875 14.890625 -9.003906 15.984375 -9.921875 C 17.085938 -10.847656 17.640625 -12.140625 17.640625 -13.796875 C 17.640625 -15.492188 17.085938 -16.796875 15.984375 -17.703125 C 14.890625 -18.617188 13.300781 -19.078125 11.21875 -19.078125 L 5.640625 -19.078125 L 5.640625 -8.546875 Z M 11.21875 -8.546875 "/></g></g></g><g fill="#274f81" fill-opacity="1"><g transform="translate(148.690096, 180.011707)"><g><path d="M 3.421875 -21 L 5.640625 -21 L 5.640625 0 L 3.421875 0 Z M 3.421875 -21 "/></g></g></g><g fill="#274f81" fill-opacity="1"><g transform="translate(159.850173, 180.011707)"><g><path d="M 18.203125 -10.5 L 20.34375 -10.5 L 20.34375 -2.484375 C 19.363281 -1.628906 18.203125 -0.96875 16.859375 -0.5 C 15.515625 -0.0390625 14.101562 0.1875 12.625 0.1875 C 10.53125 0.1875 8.640625 -0.269531 6.953125 -1.1875 C 5.273438 -2.113281 3.957031 -3.390625 3 -5.015625 C 2.039062 -6.648438 1.5625 -8.476562 1.5625 -10.5 C 1.5625 -12.519531 2.039062 -14.34375 3 -15.96875 C 3.957031 -17.601562 5.273438 -18.878906 6.953125 -19.796875 C 8.640625 -20.722656 10.539062 -21.1875 12.65625 -21.1875 C 14.257812 -21.1875 15.726562 -20.929688 17.0625 -20.421875 C 18.40625 -19.910156 19.535156 -19.15625 20.453125 -18.15625 L 19.078125 -16.734375 C 17.421875 -18.378906 15.3125 -19.203125 12.75 -19.203125 C 11.050781 -19.203125 9.515625 -18.828125 8.140625 -18.078125 C 6.773438 -17.328125 5.703125 -16.285156 4.921875 -14.953125 C 4.140625 -13.617188 3.75 -12.132812 3.75 -10.5 C 3.75 -8.863281 4.140625 -7.382812 4.921875 -6.0625 C 5.703125 -4.738281 6.769531 -3.695312 8.125 -2.9375 C 9.488281 -2.175781 11.019531 -1.796875 12.71875 -1.796875 C 14.875 -1.796875 16.703125 -2.335938 18.203125 -3.421875 Z M 18.203125 -10.5 "/></g></g></g><g fill="#274f81" fill-opacity="1"><g transform="translate(185.140235, 180.011707)"><g><path d="M 20.96875 -21 L 20.96875 0 L 18.78125 0 L 18.78125 -9.6875 L 5.640625 -9.6875 L 5.640625 0 L 3.421875 0 L 3.421875 -21 L 5.640625 -21 L 5.640625 -11.640625 L 18.78125 -11.640625 L 18.78125 -21 Z M 20.96875 -21 "/></g></g></g><g fill="#274f81" fill-opacity="1"><g transform="translate(211.630308, 180.011707)"><g><path d="M 7.5 -19.078125 L 0.125 -19.078125 L 0.125 -21 L 17.09375 -21 L 17.09375 -19.078125 L 9.71875 -19.078125 L 9.71875 0 L 7.5 0 Z M 7.5 -19.078125 "/></g></g></g><g fill="#274f81" fill-opacity="1"><g transform="translate(230.950382, 180.011707)"><g><path d="M 18.265625 -1.921875 L 18.265625 0 L 3.421875 0 L 3.421875 -21 L 17.8125 -21 L 17.8125 -19.078125 L 5.640625 -19.078125 L 5.640625 -11.609375 L 16.5 -11.609375 L 16.5 -9.71875 L 5.640625 -9.71875 L 5.640625 -1.921875 Z M 18.265625 -1.921875 "/></g></g></g><g fill="#274f81" fill-opacity="1"><g transform="translate(253.120459, 180.011707)"><g><path d="M 17.765625 0 L 12.953125 -6.75 C 12.421875 -6.6875 11.863281 -6.65625 11.28125 -6.65625 L 5.640625 -6.65625 L 5.640625 0 L 3.421875 0 L 3.421875 -21 L 11.28125 -21 C 13.957031 -21 16.054688 -20.359375 17.578125 -19.078125 C 19.097656 -17.796875 19.859375 -16.035156 19.859375 -13.796875 C 19.859375 -12.160156 19.441406 -10.773438 18.609375 -9.640625 C 17.785156 -8.515625 16.601562 -7.703125 15.0625 -7.203125 L 20.1875 0 Z M 11.21875 -8.546875 C 13.300781 -8.546875 14.890625 -9.003906 15.984375 -9.921875 C 17.085938 -10.847656 17.640625 -12.140625 17.640625 -13.796875 C 17.640625 -15.492188 17.085938 -16.796875 15.984375 -17.703125 C 14.890625 -18.617188 13.300781 -19.078125 11.21875 -19.078125 L 5.640625 -19.078125 L 5.640625 -8.546875 Z M 11.21875 -8.546875 "/></g></g></g><g fill="#274f81" fill-opacity="1"><g transform="translate(119.422153, 214.511705)"><g><path d="M 3.421875 -21 L 11.96875 -21 C 14.1875 -21 16.144531 -20.550781 17.84375 -19.65625 C 19.550781 -18.769531 20.875 -17.53125 21.8125 -15.9375 C 22.75 -14.351562 23.21875 -12.539062 23.21875 -10.5 C 23.21875 -8.457031 22.75 -6.640625 21.8125 -5.046875 C 20.875 -3.460938 19.550781 -2.222656 17.84375 -1.328125 C 16.144531 -0.441406 14.1875 0 11.96875 0 L 3.421875 0 Z M 11.84375 -1.921875 C 13.6875 -1.921875 15.296875 -2.285156 16.671875 -3.015625 C 18.054688 -3.742188 19.128906 -4.753906 19.890625 -6.046875 C 20.648438 -7.335938 21.03125 -8.820312 21.03125 -10.5 C 21.03125 -12.175781 20.648438 -13.660156 19.890625 -14.953125 C 19.128906 -16.242188 18.054688 -17.253906 16.671875 -17.984375 C 15.296875 -18.710938 13.6875 -19.078125 11.84375 -19.078125 L 5.640625 -19.078125 L 5.640625 -1.921875 Z M 11.84375 -1.921875 "/></g></g></g><g fill="#274f81" fill-opacity="1"><g transform="translate(146.302211, 214.511705)"><g><path d="M 18.265625 -1.921875 L 18.265625 0 L 3.421875 0 L 3.421875 -21 L 17.8125 -21 L 17.8125 -19.078125 L 5.640625 -19.078125 L 5.640625 -11.609375 L 16.5 -11.609375 L 16.5 -9.71875 L 5.640625 -9.71875 L 5.640625 -1.921875 Z M 18.265625 -1.921875 "/></g></g></g><g fill="#274f81" fill-opacity="1"><g transform="translate(168.472283, 214.511705)"><g><path d="M 20.96875 -21 L 20.96875 0 L 19.140625 0 L 5.640625 -17.046875 L 5.640625 0 L 3.421875 0 L 3.421875 -21 L 5.25 -21 L 18.78125 -3.953125 L 18.78125 -21 Z M 20.96875 -21 "/></g></g></g><g fill="#274f81" fill-opacity="1"><g transform="translate(194.962349, 214.511705)"><g><path d="M 7.5 -19.078125 L 0.125 -19.078125 L 0.125 -21 L 17.09375 -21 L 17.09375 -19.078125 L 9.71875 -19.078125 L 9.71875 0 L 7.5 0 Z M 7.5 -19.078125 "/></g></g></g><g fill="#274f81" fill-opacity="1"><g transform="translate(214.282418, 214.511705)"><g><path d="M 16.59375 -5.609375 L 4.890625 -5.609375 L 2.375 0 L 0.0625 0 L 9.65625 -21 L 11.84375 -21 L 21.453125 0 L 19.109375 0 Z M 15.78125 -7.40625 L 10.734375 -18.6875 L 5.703125 -7.40625 Z M 15.78125 -7.40625 "/></g></g></g><g fill="#274f81" fill-opacity="1"><g transform="translate(237.892494, 214.511705)"><g><path d="M 3.421875 -21 L 5.640625 -21 L 5.640625 -1.921875 L 17.40625 -1.921875 L 17.40625 0 L 3.421875 0 Z M 3.421875 -21 "/></g></g></g></svg>